<svg xmlns="http://www.w3.org/2000/svg" xmlns:xlink="http://www.w3.org/1999/xlink" width="2000" zoomAndPan="magnify" viewBox="0 0 1500 1499.999933" height="2000" preserveAspectRatio="xMidYMid meet" version="1.0"><defs><g/><clipPath id="9829c70252"><path d="M 1325 851.675781 L 1456.523438 851.675781 L 1456.523438 983.195312 L 1325 983.195312 Z M 1325 851.675781 " clip-rule="nonzero"/></clipPath><clipPath id="725f9fc2ff"><path d="M 1390.761719 851.675781 C 1354.441406 851.675781 1325 881.117188 1325 917.433594 C 1325 953.753906 1354.441406 983.195312 1390.761719 983.195312 C 1427.078125 983.195312 1456.523438 953.753906 1456.523438 917.433594 C 1456.523438 881.117188 1427.078125 851.675781 1390.761719 851.675781 Z M 1390.761719 851.675781 " clip-rule="nonzero"/></clipPath><clipPath id="5c9a2cda81"><path d="M 0 0.675781 L 131.523438 0.675781 L 131.523438 132.195312 L 0 132.195312 Z M 0 0.675781 " clip-rule="nonzero"/></clipPath><clipPath id="6156439752"><path d="M 65.761719 0.675781 C 29.441406 0.675781 0 30.117188 0 66.433594 C 0 102.753906 29.441406 132.195312 65.761719 132.195312 C 102.078125 132.195312 131.523438 102.753906 131.523438 66.433594 C 131.523438 30.117188 102.078125 0.675781 65.761719 0.675781 Z M 65.761719 0.675781 " clip-rule="nonzero"/></clipPath><clipPath id="ce2dc322ca"><rect x="0" width="132" y="0" height="133"/></clipPath><clipPath id="f91729329c"><path d="M 483.238281 564.175781 L 590.847656 564.175781 L 590.847656 671.78125 L 483.238281 671.78125 Z M 483.238281 564.175781 " clip-rule="nonzero"/></clipPath><clipPath id="40d5247f75"><path d="M 537.042969 564.175781 C 507.328125 564.175781 483.238281 588.261719 483.238281 617.976562 C 483.238281 647.695312 507.328125 671.78125 537.042969 671.78125 C 566.757812 671.78125 590.847656 647.695312 590.847656 617.976562 C 590.847656 588.261719 566.757812 564.175781 537.042969 564.175781 Z M 537.042969 564.175781 " clip-rule="nonzero"/></clipPath><clipPath id="1ab2b2fa60"><path d="M 0.238281 0.175781 L 107.847656 0.175781 L 107.847656 107.78125 L 0.238281 107.78125 Z M 0.238281 0.175781 " clip-rule="nonzero"/></clipPath><clipPath id="9a1448a38f"><path d="M 54.042969 0.175781 C 24.328125 0.175781 0.238281 24.261719 0.238281 53.976562 C 0.238281 83.695312 24.328125 107.78125 54.042969 107.78125 C 83.757812 107.78125 107.847656 83.695312 107.847656 53.976562 C 107.847656 24.261719 83.757812 0.175781 54.042969 0.175781 Z M 54.042969 0.175781 " clip-rule="nonzero"/></clipPath><clipPath id="d6087dcd4d"><rect x="0" width="108" y="0" height="108"/></clipPath></defs><g fill="#0d0d0d" fill-opacity="1"><g transform="translate(45.109234, 976.549)"><g><path d="M 358.9375 -287.265625 C 358.9375 -262.992188 351.132812 -242.085938 335.53125 -224.546875 C 319.925781 -207.015625 298.828125 -194.972656 272.234375 -188.421875 L 350.265625 -60.6875 C 360.285156 -44.125 369.628906 -31.695312 378.296875 -23.40625 C 386.972656 -15.125 395.738281 -10.789062 404.59375 -10.40625 L 404.59375 0 L 287.265625 0 L 176.875 -180.90625 L 158.953125 -180.90625 L 158.953125 -60.109375 C 158.953125 -45.078125 160.972656 -34.09375 165.015625 -27.15625 C 169.066406 -20.226562 174.941406 -15.800781 182.640625 -13.875 C 190.347656 -11.945312 201.910156 -10.789062 217.328125 -10.40625 L 217.328125 0 L 10.984375 0 L 10.984375 -10.40625 C 25.628906 -10.789062 36.707031 -12.039062 44.21875 -14.15625 C 51.726562 -16.28125 57.3125 -20.90625 60.96875 -28.03125 C 64.632812 -35.15625 66.46875 -45.847656 66.46875 -60.109375 L 66.46875 -342.171875 C 66.46875 -359.515625 62.128906 -371.269531 53.453125 -377.4375 C 44.785156 -383.601562 30.628906 -386.6875 10.984375 -386.6875 L 10.984375 -397.09375 L 215.015625 -397.09375 C 257.785156 -397.09375 292.460938 -387.457031 319.046875 -368.1875 C 345.640625 -348.914062 358.9375 -321.941406 358.9375 -287.265625 Z M 190.15625 -202.296875 C 209.425781 -202.296875 226.765625 -208.363281 242.171875 -220.5 C 257.585938 -232.644531 265.296875 -255.476562 265.296875 -289 C 265.296875 -346.800781 237.359375 -375.703125 181.484375 -375.703125 L 158.953125 -375.703125 L 158.953125 -202.296875 Z M 190.15625 -202.296875 "/></g></g></g><g fill="#0d0d0d" fill-opacity="1"><g transform="translate(460.692238, 976.549)"><g><path d="M 81.5 -405.75 C 93.832031 -405.75 104.332031 -401.414062 113 -392.75 C 121.664062 -384.082031 126 -373.582031 126 -361.25 C 126 -348.914062 121.664062 -338.316406 113 -329.453125 C 104.332031 -320.597656 93.832031 -316.171875 81.5 -316.171875 C 69.164062 -316.171875 58.566406 -320.597656 49.703125 -329.453125 C 40.835938 -338.316406 36.40625 -348.914062 36.40625 -361.25 C 36.40625 -373.582031 40.835938 -384.082031 49.703125 -392.75 C 58.566406 -401.414062 69.164062 -405.75 81.5 -405.75 Z M 119.640625 -43.921875 C 119.640625 -21.960938 129.273438 -10.789062 148.546875 -10.40625 L 148.546875 0 L 6.9375 0 L 6.9375 -10.40625 C 18.882812 -10.40625 27.457031 -13.101562 32.65625 -18.5 C 37.851562 -23.894531 40.453125 -33.332031 40.453125 -46.8125 L 40.453125 -221.953125 C 40.453125 -234.671875 37.945312 -243.820312 32.9375 -249.40625 C 27.9375 -254.988281 19.269531 -257.78125 6.9375 -257.78125 L 6.9375 -268.1875 L 119.640625 -268.1875 Z M 119.640625 -43.921875 "/></g></g></g><g fill="#0d0d0d" fill-opacity="1"><g transform="translate(617.330579, 976.549)"><g><path d="M 139.875 -257.78125 C 124.070312 -257.007812 116.171875 -250.460938 116.171875 -238.140625 C 116.171875 -233.128906 117.519531 -226.863281 120.21875 -219.34375 C 122.914062 -211.832031 124.457031 -207.304688 124.84375 -205.765625 L 158.375 -113.28125 L 159.53125 -113.28125 L 191.3125 -206.34375 C 195.550781 -217.90625 197.671875 -226.578125 197.671875 -232.359375 C 197.671875 -239.679688 195.644531 -245.648438 191.59375 -250.265625 C 187.550781 -254.890625 181.875 -257.394531 174.5625 -257.78125 L 174.5625 -268.1875 L 247.390625 -268.1875 L 247.390625 -257.78125 C 240.835938 -255.082031 234.378906 -249.785156 228.015625 -241.890625 C 221.660156 -233.992188 214.242188 -217.90625 205.765625 -193.625 L 134.671875 6.9375 L 121.375 6.9375 L 46.234375 -199.40625 C 39.679688 -217.519531 34.671875 -230.429688 31.203125 -238.140625 C 27.742188 -245.847656 24.179688 -250.953125 20.515625 -253.453125 C 16.859375 -255.953125 11.945312 -257.394531 5.78125 -257.78125 L 5.78125 -268.1875 L 139.875 -268.1875 Z M 139.875 -257.78125 "/></g></g></g><g fill="#0d0d0d" fill-opacity="1"><g transform="translate(870.495247, 976.549)"><g><path d="M 134.09375 -274.546875 C 157.601562 -274.546875 177.351562 -268.570312 193.34375 -256.625 C 209.332031 -244.6875 221.375 -229.367188 229.46875 -210.671875 C 237.5625 -191.984375 241.800781 -172.625 242.1875 -152.59375 L 242.1875 -142.765625 L 90.171875 -142.765625 C 92.484375 -110.785156 100.863281 -84.96875 115.3125 -65.3125 C 129.757812 -45.664062 147.773438 -35.84375 169.359375 -35.84375 C 183.222656 -35.84375 195.066406 -39.597656 204.890625 -47.109375 C 214.722656 -54.617188 223.6875 -65.503906 231.78125 -79.765625 L 242.1875 -73.40625 C 229.082031 -45.664062 213.472656 -25.144531 195.359375 -11.84375 C 177.253906 1.445312 155.867188 8.09375 131.203125 8.09375 C 106.546875 8.09375 85.445312 2.023438 67.90625 -10.109375 C 50.375 -22.253906 36.984375 -38.726562 27.734375 -59.53125 C 18.492188 -80.34375 13.875 -103.65625 13.875 -129.46875 C 13.875 -155.289062 19.265625 -179.28125 30.046875 -201.4375 C 40.835938 -223.59375 55.484375 -241.316406 73.984375 -254.609375 C 92.484375 -267.898438 112.519531 -274.546875 134.09375 -274.546875 Z M 171.671875 -176.296875 C 171.671875 -203.648438 168.679688 -223.875 162.703125 -236.96875 C 156.734375 -250.070312 147.195312 -256.625 134.09375 -256.625 C 120.21875 -256.625 109.425781 -248.050781 101.71875 -230.90625 C 94.019531 -213.757812 90.171875 -194.015625 90.171875 -171.671875 L 90.171875 -161.84375 L 171.671875 -161.84375 Z M 171.671875 -176.296875 "/></g></g></g><g fill="#0d0d0d" fill-opacity="1"><g transform="translate(1123.659871, 976.549)"><g><path d="M 179.1875 -274.546875 C 188.425781 -274.546875 195.9375 -270.976562 201.71875 -263.84375 C 207.5 -256.71875 210.390625 -247.570312 210.390625 -236.40625 C 210.390625 -224.457031 207.5 -214.820312 201.71875 -207.5 C 195.9375 -200.175781 188.039062 -196.515625 178.03125 -196.515625 C 173.40625 -196.515625 169.359375 -197.476562 165.890625 -199.40625 C 162.421875 -201.332031 158.179688 -204.03125 153.171875 -207.5 C 145.847656 -212.507812 140.453125 -215.015625 136.984375 -215.015625 C 130.816406 -215.015625 125.613281 -210.003906 121.375 -199.984375 C 117.132812 -189.960938 115.015625 -178.597656 115.015625 -165.890625 L 115.015625 -45.65625 C 115.015625 -32.945312 117.519531 -23.894531 122.53125 -18.5 C 127.539062 -13.101562 136.597656 -10.40625 149.703125 -10.40625 L 149.703125 0 L 6.359375 0 L 6.359375 -10.40625 C 26.015625 -10.40625 35.84375 -21.960938 35.84375 -45.078125 L 35.84375 -223.109375 C 35.84375 -245.835938 26.015625 -257.394531 6.359375 -257.78125 L 6.359375 -268.1875 L 115.015625 -268.1875 L 115.015625 -220.21875 L 116.171875 -220.21875 C 134.285156 -256.4375 155.289062 -274.546875 179.1875 -274.546875 Z M 179.1875 -274.546875 "/></g></g></g><g clip-path="url(#9829c70252)"><g clip-path="url(#725f9fc2ff)"><g transform="matrix(1, 0, 0, 1, 1325, 851)"><g clip-path="url(#ce2dc322ca)"><g clip-path="url(#5c9a2cda81)"><g clip-path="url(#6156439752)"><path fill="#fc4c00" d="M 0 0.675781 L 131.523438 0.675781 L 131.523438 132.195312 L 0 132.195312 Z M 0 0.675781 " fill-opacity="1" fill-rule="nonzero"/></g></g></g></g></g></g><g clip-path="url(#f91729329c)"><g clip-path="url(#40d5247f75)"><g transform="matrix(1, 0, 0, 1, 483, 564)"><g clip-path="url(#d6087dcd4d)"><g clip-path="url(#1ab2b2fa60)"><g clip-path="url(#9a1448a38f)"><path fill="#fc4c00" d="M 0.238281 0.175781 L 107.847656 0.175781 L 107.847656 107.78125 L 0.238281 107.78125 Z M 0.238281 0.175781 " fill-opacity="1" fill-rule="nonzero"/></g></g></g></g></g></g></svg>